<svg width="26px" height="32px" viewBox="0 0 26 32" version="1.1" xmlns="http://www.w3.org/2000/svg" xmlns:xlink="http://www.w3.org/1999/xlink">
    <!-- Generator: Sketch 64 (93537) - https://sketch.com -->
    <title>company</title>
    <desc>Created with Sketch.</desc>
    <defs>
        <linearGradient x1="98.0923353%" y1="120.110618%" x2="16.3615795%" y2="13.1141086%" id="linearGradient-1">
            <stop stop-color="#FFFFFF" stop-opacity="0.143192745" offset="0%"></stop>
            <stop stop-color="#FFFFFF" stop-opacity="0.393165428" offset="100%"></stop>
        </linearGradient>
    </defs>
    <g id="Principal" stroke="none" stroke-width="1" fill="none" fill-rule="evenodd">
        <g id="web-leitos" transform="translate(-478.000000, -1405.000000)" fill="url(#linearGradient-1)" fill-rule="nonzero">
            <g id="Group-17" transform="translate(150.000000, 1130.000000)">
                <g id="Group-30">
                    <g id="Group-8-Copy" transform="translate(309.000000, 258.000000)">
                        <g id="company" transform="translate(19.000000, 17.000000)">
                            <path d="M25.0881429,10.6618571 L25.5732905,11.3909095 L24.8750667,11.917781 C23.8775952,12.670419 22.0575952,14.0433429 22.0575952,16.762881 C22.0575952,19.9838476 24.1187762,21.2225619 25.1090048,21.8183333 C25.5461143,22.0813048 25.9985762,22.3524476 25.9985762,22.9454952 C25.9985762,23.3327095 22.9081667,31.6472 18.420381,31.6472 C17.3222524,31.6472 16.5460286,31.3171238 15.8613619,31.0260476 C15.1685857,30.731319 14.5709571,30.4774476 13.5834524,30.4774476 C13.0828905,30.4774476 12.4499143,30.7141095 11.7797952,30.965319 C10.8640381,31.3070952 9.82750476,31.6952381 8.65137619,31.6952381 L8.62054762,31.6952381 C3.90334286,31.6680619 0.00136190476,22.0386524 0.00136190476,17.134619 C0.00136190476,9.12389524 6.01076667,7.37013333 8.32674762,7.37013333 C9.3704619,7.37013333 10.4849333,7.78000476 11.467919,8.14270476 C12.1553095,8.39570952 12.8662238,8.65688571 13.2616095,8.65688571 C13.4982714,8.65688571 14.0559714,8.43470952 14.5483619,8.23977143 C15.5984524,7.82172857 16.9051381,7.3021619 18.4267571,7.3021619 C19.5719952,7.3021619 23.0169952,7.55151429 25.0881429,10.6618571 Z M18.9021857,-1.66755498e-12 C19.0190619,4.21422857 16.0052286,7.13786667 12.9949238,6.95450476 C12.498881,3.59140476 16.0048571,-1.66755498e-12 18.9021857,-1.66755498e-12 Z" id="Combined-Shape"></path>
                        </g>
                    </g>
                </g>
            </g>
        </g>
    </g>
</svg>