<svg width="28px" height="26px" viewBox="0 0 28 26" version="1.1" xmlns="http://www.w3.org/2000/svg" xmlns:xlink="http://www.w3.org/1999/xlink">
    <!-- Generator: Sketch 64 (93537) - https://sketch.com -->
    <title>tablet</title>
    <desc>Created with Sketch.</desc>
    <defs>
        <linearGradient x1="85.2652974%" y1="68.9658652%" x2="-5.15887852%" y2="7.40253348%" id="linearGradient-1">
            <stop stop-color="#FFFFFF" stop-opacity="0" offset="0%"></stop>
            <stop stop-color="#FFFFFF" stop-opacity="0.393165428" offset="100%"></stop>
        </linearGradient>
        <linearGradient x1="75.4641379%" y1="100%" x2="24.5358621%" y2="13.1141086%" id="linearGradient-2">
            <stop stop-color="#FFFFFF" stop-opacity="0" offset="0%"></stop>
            <stop stop-color="#FFFFFF" stop-opacity="0.393165428" offset="100%"></stop>
        </linearGradient>
    </defs>
    <g id="Principal" stroke="none" stroke-width="1" fill="none" fill-rule="evenodd">
        <g id="web-leitos" transform="translate(-714.000000, -1411.000000)" fill-rule="nonzero">
            <g id="Group-17" transform="translate(150.000000, 1130.000000)">
                <g id="Group-30">
                    <g id="Group-8-Copy-2" transform="translate(545.000000, 258.000000)">
                        <g id="tablet" transform="translate(19.000000, 23.000000)">
                            <path d="M26.90625,16.6625536 C27.510376,16.6625536 28,16.175031 28,15.5734979 L28,10.7816524 C28,8.37956115 26.0374451,6.42542918 23.625,6.42542918 L21.3828125,6.42542918 L21.3828125,4.35622318 C21.3828125,1.95413196 19.4202576,0 17.0078125,0 L4.375,0 C1.96255495,0 0,1.95413196 0,4.35622318 L0,12.4762827 C0,14.878374 1.96255495,16.8325059 4.375,16.8325059 L9.6796875,16.8325059 L9.6796875,19.0106175 L7.1640625,19.0106175 C6.55993652,19.0106175 6.0703125,19.4981401 6.0703125,20.0996733 C6.0703125,20.7012065 6.55993652,21.1887291 7.1640625,21.1887291 L14.05896,21.1887291 C14.1491089,23.512119 16.0744934,25.375 18.4296875,25.375 L23.625,25.375 C26.0374451,25.375 28,23.420868 28,21.0187768 C28,20.4172437 27.510376,19.929721 26.90625,19.929721 C26.302124,19.929721 25.8125,20.4172437 25.8125,21.0187768 C25.8125,22.2197161 24.8311157,23.1968884 23.625,23.1968884 L18.4296875,23.1968884 C17.2235718,23.1968884 16.2421875,22.2197161 16.2421875,21.0187768 L16.2421875,10.7816524 C16.2421875,9.58071307 17.2235718,8.60354077 18.4296875,8.60354077 L23.625,8.60354077 C24.8311157,8.60354077 25.8125,9.58071307 25.8125,10.7816524 L25.8125,15.5734979 C25.8125,16.175031 26.302124,16.6625536 26.90625,16.6625536 Z M11.8671875,16.8325059 L14.0546875,16.8325059 L14.0546875,19.0106175 L11.8671875,19.0106175 L11.8671875,16.8325059 Z M14.0546875,10.7816524 L14.0546875,14.6543943 L4.375,14.6543943 C3.16888425,14.6543943 2.1875,13.6774347 2.1875,12.4762827 L2.1875,4.35622318 C2.1875,3.15528389 3.16888425,2.17811159 4.375,2.17811159 L17.0078125,2.17811159 C18.2139282,2.17811159 19.1953125,3.15528389 19.1953125,4.35622318 L19.1953125,6.42542918 L18.4296875,6.42542918 C16.0172424,6.42542918 14.0546875,8.37956115 14.0546875,10.7816524 Z M22.09375,19.3307403 C22.697876,19.3307403 23.1875,19.818263 23.1875,20.4197961 C23.1875,21.0213293 22.697876,21.5088519 22.09375,21.5088519 L19.9609375,21.5088519 C19.3568115,21.5088519 18.8671875,21.0213293 18.8671875,20.4197961 C18.8671875,19.818263 19.3568115,19.3307403 19.9609375,19.3307403 L22.09375,19.3307403 Z" id="Shape" fill="#FFFFFF"></path>
                            <polygon id="Rectangle" fill="url(#linearGradient-1)" points="1.75 1.75 20.125 1.75 20.125 7.20569195 15.8456991 8.79171647 15.1950985 14.875 1.75 14.875"></polygon>
                            <path d="M15.75,7.875 L25.9154604,7.875 L27.0304082,13.3120744 L27.0304082,15.1852974 C27.203913,18.0504167 27.203913,20.1582682 27.0304082,21.5088519 C26.8569034,22.8594357 26.4852541,23.6445499 25.9154604,23.8641946 L15.75,23.5716519 L15.75,7.875 Z" id="Rectangle" fill="url(#linearGradient-2)"></path>
                        </g>
                    </g>
                </g>
            </g>
        </g>
    </g>
</svg>